<?xml version="1.0" standalone="no"?>
<!DOCTYPE svg PUBLIC "-//W3C//DTD SVG 20010904//EN"
 "http://www.w3.org/TR/2001/REC-SVG-20010904/DTD/svg10.dtd">
<svg version="1.0" xmlns="http://www.w3.org/2000/svg"
 width="57.000000pt" height="50.000000pt" viewBox="0 0 57.000000 50.000000"
 preserveAspectRatio="xMidYMid meet">

<g transform="translate(0.000000,50.000000) scale(0.100000,-0.100000)"
fill="#000000" stroke="none">
<path d="M145 426 c-64 -15 -75 -22 -75 -48 0 -28 22 -99 29 -95 80 45 206 58
314 33 38 -9 75 -16 82 -16 15 0 47 90 36 102 -32 34 -283 49 -386 24z"/>
<path d="M144 290 c-28 -11 -37 -27 -30 -47 5 -11 10 -12 19 -5 7 6 34 16 60
23 43 10 46 13 30 25 -20 15 -48 17 -79 4z"/>
<path d="M235 255 c-5 -2 -29 -9 -51 -15 -56 -14 -61 -33 -24 -91 31 -47 31
-48 51 -28 15 15 33 19 83 19 36 0 76 -4 89 -9 30 -12 45 -1 75 51 l20 36 -26
11 c-70 27 -179 40 -217 26z"/>
<path d="M240 121 c-37 -10 -36 -38 1 -77 40 -41 76 -44 109 -9 l23 25 -39 35
c-40 35 -51 38 -94 26z"/>
</g>
</svg>
