<svg version="1.0" xmlns="http://www.w3.org/2000/svg" width="76" height="66.667" viewBox="0 0 57 50"><path d="M14.5 7.4C8.1 8.9 7 9.6 7 12.2c0 2.8 2.2 9.9 2.9 9.5 8-4.5 20.6-5.8 31.4-3.3 3.8.9 7.5 1.6 8.2 1.6 1.5 0 4.7-9 3.6-10.2-3.2-3.4-28.3-4.9-38.6-2.4z"/><path d="M14.4 21c-2.8 1.1-3.7 2.7-3 4.7.5 1.1 1 1.2 1.9.5.7-.6 3.4-1.6 6-2.3 4.3-1 4.6-1.3 3-2.5-2-1.5-4.8-1.7-7.9-.4zM23.5 24.5c-.5.2-2.9.9-5.1 1.5-5.6 1.4-6.1 3.3-2.4 9.1 3.1 4.7 3.1 4.8 5.1 2.8 1.5-1.5 3.3-1.9 8.3-1.9 3.6 0 7.6.4 8.9.9 3 1.2 4.5.1 7.5-5.1l2-3.6-2.6-1.1c-7-2.7-17.9-4-21.7-2.6z"/><path d="M24 37.9c-3.7 1-3.6 3.8.1 7.7 4 4.1 7.6 4.4 10.9.9l2.3-2.5-3.9-3.5c-4-3.5-5.1-3.8-9.4-2.6z"/></svg>